Coordinates
version=1
nRows=6
nColumns=36
inDegrees=yes

Units are S.I. units (second, meters, Newtons, ...)
If the header above contains a line with 'inDegrees', this indicates whether rotational values are in degrees (yes) or radians (no).

endheader
time	pelvis_tilt	pelvis_list	pelvis_rotation	pelvis_tx	pelvis_ty	pelvis_tz	hip_flexion_r	hip_adduction_r	hip_rotation_r	knee_angle_r	knee_angle_r_beta	ankle_angle_r	subtalar_angle_r	mtp_angle_r	hip_flexion_l	hip_adduction_l	hip_rotation_l	knee_angle_l	knee_angle_l_beta	ankle_angle_l	subtalar_angle_l	mtp_angle_l	lumbar_extension	lumbar_bending	lumbar_rotation	arm_flex_r	arm_add_r	arm_rot_r	elbow_flex_r	pro_sup_r	arm_flex_l	arm_add_l	arm_rot_l	elbow_flex_l	pro_sup_l
      0.00000000	     -4.70336529	      1.16423783	      6.04698453	     -0.64337975	      1.51876921	      0.20993137	     29.60859425	     -9.41648319	     -8.95212488	     43.93673567	      0.76684070	     -2.02402975	     -9.16439528	     -5.76801543	     15.17520125	      2.01213298	      2.74360965	     19.32004554	      0.33719841	    -21.36666472	    -33.03255634	     -5.76801543	    -26.91259378	      6.21637143	      3.78084912	      4.77085576	    -13.04774037	      1.51567315	     41.50733642	     83.03584711	      2.30044482	     -7.30213963	      7.47843477	     27.67726546	     69.62871445
      0.00416670	     -4.09707963	      2.59620232	      4.92248330	     -0.64441218	      1.51842622	      0.21083346	     30.59245265	    -11.92853726	     -9.04421840	     45.48280873	      0.79382477	      2.82892807	     -2.69844832	     -6.02317392	     16.20655401	      5.04641062	      4.86000160	     21.70445869	      0.37881427	    -19.70809367	    -32.85787056	     -6.02317392	    -27.59959161	      5.05643771	      2.36114986	      7.92000866	    -12.42741984	      2.44638545	     36.90772479	     83.45296124	      0.75238433	     -6.90502643	      1.15096302	     26.44685761	     68.43758325
      0.00833330	     -4.36439815	      3.52718504	      3.91556385	     -0.63695236	      1.51321287	      0.21710571	     31.53481135	    -13.36585969	     -9.97634184	     46.00917531	      0.80301160	      3.80524451	     -1.55768836	     -6.15364988	     16.57514892	      5.83785210	      4.82022975	     21.22257987	      0.37040389	    -19.42873648	    -32.99787522	     -6.15364988	    -26.90251654	      3.68617188	      2.76427857	      7.20588118	    -11.82259716	      2.49239911	     37.27327706	     81.55130707	      0.37847025	     -7.17856811	      0.39785906	     25.12229883	     67.86939019
      0.01250000	     -4.01242267	      3.85613732	      4.34414003	     -0.62903771	      1.51415670	      0.23032765	     30.84043428	    -14.00533200	    -11.30743011	     45.64996807	      0.79674225	      3.75969462	     -0.68462689	     -6.14922749	     15.40398774	      5.82135156	      5.07003379	     19.84749140	      0.34640407	    -19.70763743	    -33.16401616	     -6.14922749	    -27.12856039	      2.83773868	      2.88057595	      6.35139423	    -11.26942718	      3.86729841	     36.88631965	     81.61968834	      0.74508701	     -8.24111876	      0.54363091	     23.23356378	     68.04264604
      0.01666670	     -3.61152138	      4.20726115	      4.93162124	     -0.62266344	      1.51422149	      0.23490778	     29.85430664	    -14.54208948	    -11.89389104	     44.21476250	      0.77169318	      3.66296347	     -0.24407735	     -6.17293296	     14.36788954	      5.79935305	      3.84839332	     18.52239240	      0.32327673	    -20.66680501	    -33.62682528	     -6.17293296	    -27.60832819	      2.19895235	      2.99602881	      5.26141294	    -10.38831459	      4.80430458	     36.26556980	     81.95572334	      0.76146545	     -9.32196440	      0.67511190	     22.18410168	     68.08424075
      0.02083330	     -3.34796836	      4.46929933	      5.65423693	     -0.62253379	      1.51285225	      0.23432282	     29.27167392	    -15.14887274	    -12.45060824	     43.27590200	      0.75530698	      3.66359869	      0.48015601	     -6.25043914	     13.85363221	      6.06354751	      3.66943914	     17.80159254	      0.31069640	    -21.07520051	    -33.67416055	     -6.25043914	    -28.25033539	      2.06432305	      2.83579170	      5.11297280	    -10.06876916	      6.72186268	     35.36390271	     81.33616999	      1.16590013	     -9.95344025	      0.75288791	     21.27993150	     67.39964895
